. 
 
http://www.torrenting.com          :     Once & For all ;)


               www . Torrenting . Com 

(((((((((((((= Enjoy No RAR releases =))))))))))))))))))))


...................................NFO:....................................

.[IMG]http://i.imgur.com/9PAGO.jpg[/IMG]
 
http://www.imdb.com/title/tt1389137/


Set in Southern California, a father moves his young family to the countryside to renovate and re-open a struggling zoo. 


General
Complete name                            : C:UsersrootDesktopWe.Bought.A.Zoo.2011.DVDRip.XviD.AC3-GBR.avi
Format                                   : AVI
Format/Info                              : Audio Video Interleave
File size                                : 1.26 GiB
Duration                                 : 2h 3mn
Overall bit rate                         : 1 456 Kbps
Writing application                      : VirtualDubMod 1.5.10.2 (build 2540/release)
Writing library                          : VirtualDubMod build 2540/release

Video
ID                                       : 0
Format                                   : MPEG-4 Visual
Format profile                           : Advanced Simple@L5
Format settings, BVOP                    : 1
Format settings, QPel                    : No
Format settings, GMC                     : No warppoints
Format settings, Matrix                  : Default (H.263)
Muxing mode                              : Packed bitstream
Codec ID                                 : XVID
Codec ID/Hint                            : XviD
Duration                                 : 2h 3mn
Bit rate                                 : 999 Kbps
Width                                    : 720 pixels
Height                                   : 384 pixels
Display aspect ratio                     : 1.875
Frame rate                               : 23.976 fps
Color space                              : YUV
Chroma subsampling                       : 4:2:0
Bit depth                                : 8 bits
Scan type                                : Progressive
Compression mode                         : Lossy
Bits/(Pixel*Frame)                       : 0.151
Stream size                              : 885 MiB (69%)
Writing library                          : XviD 1.2.1 (UTC 2008-12-04)

Audio
ID                                       : 1
Format                                   : AC-3
Format/Info                              : Audio Coding 3
Mode extension                           : CM (complete main)
Codec ID                                 : 2000
Duration                                 : 2h 3mn
Bit rate mode                            : Constant
Bit rate                                 : 448 Kbps
Channel(s)                               : 6 channels
Channel positions                        : Front: L C R, Side: L R, LFE
Sampling rate                            : 48.0 KHz
Bit depth                                : 16 bits
Compression mode                         : Lossy
Stream size                              : 397 MiB (31%)
Alignment                                : Split accross interleaves
Interleave, duration                     : 42 ms (1.00 video frame)
Interleave, preload duration             : 500 ms

Source We Bought A Zoo DVDR-MPTDVD-thanks


[IMG]http://i.imgur.com/2ZP2X.png[/IMG]
[IMG]http://i.imgur.com/MLdTp.png[/IMG]
[IMG]http://i.imgur.com/qNlWW.png[/IMG]
[IMG]http://i.imgur.com/2abLJ.png[/IMG]